<?xml version="1.0" encoding="UTF-8"?>
<svg width="302px" height="55px" viewBox="0 0 302 55" version="1.1" xmlns="http://www.w3.org/2000/svg" xmlns:xlink="http://www.w3.org/1999/xlink">
    <title>Fill 28</title>
    <g id="Page-1" stroke="none" stroke-width="1" fill="none" fill-rule="evenodd">
        <g id="49" transform="translate(-31.000000, -51.000000)" fill="#F8F8F8">
            <path d="M83.184,89.768 C84.848,89.087 86.445,88.357 88.373,87.521 C91.121,87.838 94.485,88.229 97.851,88.618 C97.918,88.502 97.984,88.387 98.05,88.27 C96.912,88.017 95.771,87.763 94.187,87.409 C94.909,86.833 95.58,86.299 96.511,85.557 C98.701,86.351 100.701,87.079 103.265,88.01 C104.42,87.753 106.149,87.37 107.883,86.985 C107.891,86.977 107.902,86.971 107.911,86.963 C107.296,86.881 106.665,86.796 105.442,86.633 C108.553,85.292 110.267,83.359 115.043,83.569 C115.127,84.824 115.153,85.951 111.868,85.794 C109.948,85.7 108.75,86.138 107.911,86.963 C107.925,86.964 107.942,86.967 107.958,86.969 C107.932,86.975 107.909,86.979 107.883,86.985 C107.874,86.995 107.86,87.001 107.851,87.01 C108.455,87.531 109.065,88.05 109.673,88.568 C109.477,88.716 109.28,88.863 109.085,89.012 C106.609,88.508 104.201,89.683 101.712,88.846 C100.458,90.18 97.596,89.294 95.74,90.058 C94.43,90.597 92.021,91.04 90.646,90.768 C87.454,90.135 85.566,91.023 83.506,91.912 C81.603,91.198 81.294,90.539 83.184,89.768 Z M121.977,86.827 C118.063,87.89 115.122,87.914 112.092,87.516 C114.886,86.809 117.723,86.299 121.977,86.827 Z M116.805,78.815 C116.833,78.632 117.365,78.352 117.709,78.338 C118.032,78.327 118.394,78.609 118.911,78.839 C118.387,79.039 118.009,79.298 117.68,79.281 C117.34,79.265 116.779,78.967 116.805,78.815 Z M84.436,75.488 C86.217,74.798 87.637,74.249 89.055,73.7 C89.507,73.792 89.959,73.882 90.41,73.974 C90.186,74.568 90.34,75.376 89.655,75.715 C88.399,76.334 86.682,76.317 84.436,75.488 Z M97.096,72.318 C96.395,73.775 96.068,74.722 93.917,74.88 C93.344,74.923 92.598,74.319 91.448,73.79 C93.412,73.278 94.806,72.915 97.096,72.318 Z M101.137,73.999 C100.785,73.86 100.431,73.724 100.077,73.586 C99.92,72.552 101.063,72.201 104.169,72.109 C102.738,73.001 101.938,73.5 101.137,73.999 Z M132.468,68.354 C134.329,68.476 135.343,68.541 137.266,68.668 C135.023,69.696 134.025,69.571 132.468,68.354 Z M149.174,67.121 C147.919,67.45 146.664,67.778 144.866,68.249 C146.275,67.026 146.275,67.026 149.174,67.121 Z M90.573,67.098 C90.852,67.054 91.132,67.009 91.41,66.964 C91.609,67.298 91.826,67.63 91.969,67.97 C91.978,67.996 91.442,68.082 91.16,68.141 C90.965,67.793 90.768,67.445 90.573,67.098 Z M98.626,66.148 C98.834,66.381 99.041,66.613 99.251,66.847 C98.223,67.091 97.196,67.336 96.169,67.58 C95.97,67.358 95.771,67.136 95.574,66.915 C96.59,66.659 97.608,66.403 98.626,66.148 Z M128.702,65.697 C129.016,65.69 129.666,66.024 129.615,66.091 C129.409,66.37 128.994,66.605 128.655,66.855 C128.312,66.727 127.968,66.599 126.488,66.044 C127.506,65.873 128.1,65.707 128.702,65.697 Z M134.358,64.839 C134.966,64.005 135.226,63.235 136.013,62.667 C137.269,61.755 138.963,61.678 140.696,62.364 C140.534,63.666 135.64,63.239 138.445,65.215 C136.663,65.051 135.853,64.976 134.358,64.839 Z M130.266,62.481 C133.045,63.063 133.045,63.063 130.547,64.309 C130.44,63.618 130.357,63.077 130.266,62.481 Z M151.548,61.453 C156.268,60.902 160.725,60.381 165.183,59.862 C165.313,60.036 165.443,60.211 165.573,60.386 C164.522,60.62 163.48,61.039 162.416,61.054 C158.332,61.112 154.984,61.745 153.335,64.037 C152.983,63.952 152.633,63.866 152.28,63.781 C152.047,63.039 151.814,62.297 151.548,61.453 Z M204.747,60.441 L204.747,58.888 C205.196,58.893 205.646,58.897 206.095,58.903 C206.026,59.432 205.959,59.961 205.89,60.488 C205.51,60.473 205.127,60.456 204.747,60.441 Z M320.193,56.162 C320.275,55.987 320.359,55.811 320.441,55.636 C321.479,55.787 322.515,55.938 323.553,56.09 C323.472,56.259 323.39,56.426 323.307,56.594 C322.269,56.449 321.231,56.306 320.193,56.162 Z M65.523,102.025 C71.443,101.274 77.548,100.925 83.452,100.149 C90.585,99.21 97.399,97.575 104.966,97.617 C105.854,97.62 106.775,97.211 107.634,96.949 C108.498,96.684 109.249,96.169 110.141,96.102 C115.491,95.699 120.868,95.394 126.236,95.057 L126.152,95.105 C130.57,94.541 134.985,93.969 139.408,93.416 C142.052,93.087 144.686,92.69 147.371,92.521 C148.722,92.435 150.381,92.608 151.537,92.979 C153.812,93.706 155.61,94.94 158.002,95.456 C158.296,95.519 158.594,95.581 158.889,95.644 C166.144,95.145 173.415,94.725 180.697,94.378 C181.624,94.057 182.558,93.731 183.39,93.451 C184.085,93.683 184.703,93.949 185.312,94.167 C196.293,93.688 207.297,93.358 218.317,93.134 L218.317,92.84 C218.641,92.809 218.962,92.775 219.287,92.742 C219.323,92.865 219.369,92.988 219.412,93.111 C246.973,92.57 274.617,92.666 302.176,92.707 C302.185,92.575 302.245,92.436 302.419,92.294 C303.078,91.756 303.645,91.186 304.235,90.626 C304.905,89.919 305.77,89.262 306.654,88.754 C308.143,86.865 309.892,85.038 311.191,83.097 C311.464,82.688 312.113,82.516 312.758,82.513 L312.758,79.898 C312.758,79.627 313.061,79.28 313.56,79.167 C315.566,78.707 317.326,78.388 319.352,78.261 C319.663,75.307 320.892,72.37 322.575,69.504 C321.575,68.342 321.19,66.847 321.247,65.231 C322.189,65.936 323.087,66.608 323.979,67.277 C325.139,65.553 326.417,63.857 327.743,62.211 C329.233,60.36 330.841,58.526 332.516,56.709 C331.678,56.564 330.752,56.367 329.64,56.081 C329.721,55.493 329.799,54.902 329.893,54.218 C326.918,53.946 323.791,54.545 321.545,53.178 C321.231,52.988 319.977,53.228 319.157,53.263 C315.871,53.398 312.589,53.597 309.299,53.635 C307.951,53.65 306.347,52.988 305.28,53.206 C302.623,53.75 301.216,52.899 299.887,52.15 C298.167,52.565 296.443,52.727 295.477,53.267 C293,54.645 290.431,54.503 287.674,53.724 C285.099,52.996 282.302,52.843 279.54,52.993 C277.406,53.109 275.346,53.602 272.929,53.977 C272.363,52.734 270.952,52.165 268.59,52.971 C268.283,52.302 268.056,51.81 267.791,51.232 C263.528,52.205 259.676,53.22 255.061,53.023 C253.474,52.955 251.479,53.46 251.04,54.704 C250.857,55.221 249.968,55.67 248.807,56.651 L248.807,52.717 C247.729,54.047 243.15,53.882 244.296,56.05 C240.36,54.258 240.183,54.265 235.661,55.5 C235.083,55.658 234.225,55.611 233.529,55.553 C232.598,55.475 231.639,55.105 230.798,55.184 C227.177,55.516 223.606,55.992 219.996,56.361 C218.22,56.541 215.886,57.025 214.702,56.629 C211.994,55.725 209.604,55.955 206.848,56.544 C207.145,55.969 207.505,55.335 207.988,55.306 C211.072,55.129 214.181,55.087 217.146,55.004 C218.914,53.539 224.183,55.166 225.198,52.657 C223.713,52.559 222.181,52.269 220.79,52.4 C215.642,52.886 210.537,53.502 205.424,54.087 C198.013,54.937 190.747,56.19 183.065,56.272 C181.116,56.294 179.653,56.708 178.433,58.018 C187.231,58.088 194.867,56.174 203.054,56.179 C202.582,56.75 202.142,57.282 201.661,57.865 C199.333,57.631 197.042,56.96 195.709,58.489 C195.6,58.614 194.553,58.556 193.96,58.514 C188.503,58.133 184.663,58.629 179.369,60.605 C181.993,60.456 184.524,60.062 187.109,59.862 C189.176,59.702 191.493,59.575 192.591,61.335 C190.413,61.212 188.679,61.114 187.066,61.024 C186.13,61.557 185.349,62.002 185.24,62.064 C182.333,61.947 180.274,61.753 178.242,61.812 C176.052,61.875 173.889,62.174 171.715,62.371 C171.604,62.194 171.492,62.016 171.38,61.838 C172.364,61.471 173.347,61.104 174.359,60.724 C173.621,60.263 173.006,59.879 172.235,59.396 C173.306,58.875 174.216,58.429 175.125,57.985 C175.021,57.828 174.914,57.671 174.808,57.514 C160.576,58.724 146.346,59.934 132.046,61.151 C131.72,60.65 131.426,60.198 131.07,59.65 C128.61,60.481 126.563,61.561 124.137,61.914 C118.784,62.688 113.256,63.489 107.771,63.553 C101.329,63.627 95.42,64.674 89.397,65.465 C75.875,67.241 63.03,70.128 49.877,72.507 C44.65,73.452 40.338,75.117 35.339,76.174 C31.383,77.01 30.921,77.946 32.085,80.278 C35.358,80.071 38.574,79.805 41.318,78.629 C40.582,78.111 40.04,77.727 39.222,77.152 L43.76,77.152 C45.27,78.028 46.691,78.852 48.068,79.652 C49.544,79.113 50.577,78.735 51.946,78.236 C52.898,79.129 53.666,79.849 54.303,80.448 C55.876,79.752 57.298,78.982 58.969,78.422 C60.868,77.783 62.833,77.721 64.145,78.966 L64.25,78.921 C64.242,78.93 64.232,78.939 64.225,78.947 C66.238,78.212 66.497,76.246 70.433,76.574 C70.568,78.098 69.807,79.9 73.999,80.479 C74.453,79.082 74.792,77.699 75.374,76.344 C75.88,75.169 77.487,74.74 79.487,75.124 C81.491,75.508 81.296,76.234 80.611,77.071 C79.196,78.802 80.219,80.475 80.876,82.433 C82.292,80.954 82.895,79.38 84.714,78.675 C86.794,77.869 89.955,77.835 92.947,77.424 C93.137,78.27 93.26,78.819 93.495,79.864 C94.563,78.54 95.253,77.684 96.016,76.738 C98.784,77.025 100.648,77.465 101.206,78.986 C101.378,79.453 102.83,79.792 104.579,80.597 C103.583,78.701 102.955,77.5 102.421,76.489 C104.197,76.409 105.587,76.506 106.722,76.267 C110.411,75.494 111.344,75.586 113.138,77.46 C113.958,78.316 114.399,79.273 115.222,80.499 C110.809,79.929 109.309,82.259 105.896,82.607 C105.921,82.623 105.95,82.641 105.977,82.658 C105.94,82.669 105.921,82.681 105.887,82.693 C106.001,83.373 106.113,84.056 106.225,84.736 C104.784,84.03 104.067,83.319 105.887,82.693 C105.883,82.666 105.878,82.639 105.874,82.611 C105.882,82.61 105.888,82.607 105.896,82.607 C105.19,82.171 104.487,81.737 103.727,81.268 C101.695,81.706 100.924,83.462 98.12,82.484 C97.831,82.384 96.655,82.643 96.456,82.871 C94.449,85.169 91.265,84.398 87.943,83.763 C86.684,84.26 85.354,84.784 84.016,85.311 C83.522,84.734 83.025,84.153 82.441,83.469 C80.015,84.167 82.557,86.099 78.986,86.303 C78.337,85.839 77.585,85.301 76.488,84.515 C76.329,85.407 76.589,86.147 76.011,86.573 C75.412,87.016 74.001,87.151 72.945,87.421 L73.084,87.339 C71.87,87.6 70.657,87.858 69.418,88.123 C68.935,87.641 68.575,87.284 68.099,86.81 C66.058,87.531 64.024,88.169 62.177,88.93 C61.085,89.38 60.545,89.42 60.219,88.7 C56.712,88.722 53.203,88.688 49.706,88.792 C47.214,88.865 45.259,89.522 44.216,90.781 C43.921,91.136 43.695,91.508 43.248,92.141 C40.712,87.872 42.738,85.957 48.271,86.535 C49.859,85.478 51.356,84.48 52.8,83.521 C56.715,83.924 56.715,83.924 58.007,85.573 C60.033,83.415 62.127,81.182 64.225,78.947 C64.2,78.956 64.183,78.969 64.16,78.977 C64.155,78.973 64.15,78.97 64.145,78.966 C61.639,80.037 59.127,81.109 56.373,82.286 C54.415,81.723 51.888,81.681 49.372,82.417 C46.27,81.359 44.358,83.057 41.796,83.339 C41.602,83.081 41.313,82.841 41.245,82.584 C40.611,80.167 40.619,80.161 36.199,80.847 C35.14,81.012 34.105,81.219 33.19,81.383 C33.164,84.075 37.04,82.306 38.786,82.873 C38.668,84.494 36.206,84.041 34.742,84.429 C33.676,84.71 32.916,85.315 32.02,85.775 C32.835,86.143 33.589,86.77 34.474,86.825 C37.391,87.01 38.41,87.902 38.751,89.239 C37.059,89.596 35.57,89.911 34.261,90.188 C36.534,91.436 38.578,92.56 40.71,93.731 C42.128,93.546 44.066,92.925 45.329,93.191 C52.391,94.681 57.567,91.273 64.017,91.37 C64.435,91.376 64.833,91.046 65.3,90.966 C69.895,90.177 74.501,89.407 79.075,88.638 C80.494,90.911 79.384,92.356 76.121,92.501 C73.674,92.61 71.431,92.907 69.083,93.232 C64.632,93.849 60.503,95.26 55.618,94.9 C49.868,96.897 42.575,95.955 36.161,97.979 C37.419,98.253 38.77,98.547 40.119,98.842 C39.92,99.092 39.721,99.344 39.523,99.597 C38.263,100.025 37.003,100.456 35.742,100.887 L36.161,101.432 C39.782,101.693 43.4,101.953 47.448,102.244 C45.369,104.328 40.362,103.502 38.524,105.635 C39.771,105.546 40.419,105.538 41.029,105.451 C49.193,104.306 57.311,103.064 65.523,102.025 L65.523,102.025 Z" id="Fill-28"></path>
        </g>
    </g>
</svg>