<?xml version="1.0" encoding="UTF-8"?>
<svg width="262px" height="11px" viewBox="0 0 262 11" version="1.1" xmlns="http://www.w3.org/2000/svg" xmlns:xlink="http://www.w3.org/1999/xlink">
    <title>underline</title>
    <defs>
        <filter id="filter-1">
            <feColorMatrix in="SourceGraphic" type="matrix" values="0 0 0 0 0.000000 0 0 0 0 0.000000 0 0 0 0 0.000000 0 0 0 1.000000 0"></feColorMatrix>
        </filter>
    </defs>
    <g id="Page-1" stroke="none" stroke-width="1" fill="none" fill-rule="evenodd">
        <g filter="url(#filter-1)" id="underline">
            <g>
                <path d="M207.8,4.3 L207.7,4.6 C207.8,4.4 207.9,4.3 207.8,4.3 Z M235.7,7 L235.6,7 C235.4,7.4 235.5,7.3 235.7,7 Z M55.8,1.2 L55.2,0.8 C55.4,1.2 55.6,1.3 55.8,1.2 Z M35.5,6.6 L35.6,6.9 C35.6,6.7 35.6,6.6 35.5,6.6 Z M23.4,7.8 C23.1,7.7 22.7,7.7 22.4,7.7 C22.6,7.8 23.1,7.8 23.4,7.8 Z M18.5,2 C18.4,2.1 18.3,2.1 18.1,2.2 C18.3,2.1 18.4,2 18.5,2 Z M53.7,6.8 L54.2,7.7 C54.1,7.4 53.9,7.1 53.7,6.8 Z M20.5,8.6 C20.3,8.4 20.1,8.4 19.9,8.3 C19.9,8.5 20.2,8.6 20.5,8.6 Z M121.9,8.4 C121.8,8.5 121.7,8.6 121.7,8.7 C122,8.6 122,8.5 121.9,8.4 Z M81.9,7.4 L81.8,7.4 C81.8,7.4 81.9,7.5 82,7.5 L81.9,7.4 L81.9,7.4 Z M93.6,7.4 L93.4,7.6 C93.6,7.5 93.6,7.5 93.6,7.4 Z M73.1,8.3 C73,8.4 72.8,8.5 72.7,8.6 L73.1,8.3 Z" id="Shape" fill="#F3BC34" fill-rule="nonzero"></path>
                <path d="M261,3 C260,2.4 256.3,1.8 255.2,3.3 C255,3.2 255.3,3 255.4,2.9 C254.5,3.1 253.2,3 251.8,2.9 C250.4,2.8 248.9,2.7 247.6,2.9 C246.6,4.4 243.7,2.3 242.8,4.3 L243.3,3.9 C244.2,4.4 242.1,5.3 241.8,5.8 C241,4.6 241.7,4.8 240.8,3.8 L241.9,4.2 L241.6,3.2 C238.5,6 235.4,2.3 233.4,4.3 C233.5,4.2 233.5,4 233.6,3.9 C232.2,3.4 231.3,4.7 230.3,5.1 C230.2,4.6 230.9,4.2 231.4,3.8 C229,3.5 225,5 222.4,4.2 C221.5,4.9 222.8,5.1 221.8,5.7 C221,5.5 220.4,5 221.4,4.6 C219.1,3.4 213.8,5.6 210.3,4.4 C208.5,5.2 209.6,5.5 206.8,6 C207.5,5.5 206.1,4.3 207.8,4.3 L208,3.8 C205.2,3.7 201.4,3.5 199.9,5 C199.8,3.9 199.4,4.8 198.3,4.2 C197.9,4.3 198.3,4.4 198.5,4.4 C197.5,5.3 196.9,4.3 196.2,4.5 L196.5,4.3 L194.5,5 C194.2,4.8 193.7,4.6 193.6,4.3 L193.6,5.1 C192.5,5.1 193.1,4.1 191.7,4.3 L192,4.9 C191.1,4.5 189.8,5.3 189.6,4.4 C189.6,4.2 189.7,4.3 190,4.3 C188.7,3.1 186.5,4.6 184.9,4 L185.3,5.3 C183.7,5.7 184.3,5 184.4,4.6 C183.3,4.6 183.1,4.2 181.7,4 C181,4.3 181.3,4.5 181.1,4.8 L179.6,4.4 L180.6,3.7 C178.3,5.5 175,3.3 173.4,4.9 C172.6,4.5 174.2,4.2 173.7,3.9 C171.1,3 167.7,4.9 165.5,3.9 C161.9,2.9 157.7,3.5 153.7,2.8 L153.8,3.1 L150.9,2.7 C150.1,3.4 148.2,3 146.9,3.8 C147,3.5 146.8,3.1 147.1,2.9 C145.9,3 144.5,3.3 143.8,2.8 L144.2,2.5 C141.5,2.2 137.8,2 136.3,2.6 C135.4,2.6 135.4,2 135.2,1.6 C133.6,1.5 132.6,1.8 131.3,2.3 C131,2.1 130.6,2 130.3,1.7 L129.7,2.5 C129.1,2.4 129.6,1.8 129.1,1.6 C126.6,2.5 123.8,1.5 122.1,1.5 L122.3,1.9 C121.6,2.2 120.2,1.6 121.1,1.2 C117.7,0.6 116,2.4 111.5,2 C110.9,0.5 107.4,2.3 106.7,0.6 C104.8,1 103.5,0.3 102.2,1.2 C102.2,1 102,1 102.3,0.9 C101.5,0.3 99,0.7 97,1.1 L96.9,0.6 C96,1.8 92.7,1.5 92,2.6 C91.8,2.4 92.4,2.1 92.7,1.9 C91.7,0.8 90.9,2.4 89.6,2.1 C89.7,1.8 89.3,1.5 89.6,1.3 C85.2,0.1 79,2 73.3,1.2 C71.7,1.2 73.9,2.4 71.8,2.3 C71.2,1.7 72.8,1.2 71.5,0.9 C70.6,1.6 70.2,1.4 68.9,1.4 C69.1,1 68.9,0.8 69.8,0.5 C69.1,2.22044605e-15 66.7,1.4 65.3,0.5 C65.4,0.8 65.1,1 64.8,1.2 C62.7,2.2 59.9,0.3 59.7,0.8 C59.7,0.8 59,1 59.6,1.1 C58.8,1.1 57.7,0.9 57.9,0.4 C57.5,0.7 57.1,1.2 56.5,1.2 L56.8,0.6 C56.4,0.7 56,1.1 55.7,1.2 L56.3,1.6 C55.4,1.1 53.7,2.4 53.7,1.2 L54,1.2 L52.3,0.7 C51.6,1.2 51,1.7 49.8,1.6 C49.3,0.3 46.9,1.4 45.5,1.3 L45.6,0.9 C44.5,1.5 41.6,1.3 42.1,1.5 C41,1.5 39.5,1.3 40.1,0.9 C39.3,1 37.4,1 36.9,1.8 L35.1,0.8 C34.1,2.4 31.5,0.3 31.5,2 C30.5,1.8 30.7,1.4 30,1.1 C28.6,2 27.2,1.9 25.8,1.8 L25.8,1.6 C24.4,1.5 22.7,2.4 20.7,2.6 L20.2,1.4 C19.2,1.6 18.9,2.6 17.9,2.4 C17.7,2.2 17.9,2.1 18.1,2.1 C17.1,2.4 15.8,2.2 15,1.9 C13.5,2.9 12.3,2.6 11.1,3.7 C9.8,2.7 12.8,3.1 11.7,2.1 C9.5,1.7 7.3,2.5 5,3.2 C4.8,3 5,2.8 5.1,2.5 C5.1,2.5 3.9,3.4 2.9,4.3 C1.9,5.3 1,6.4 1.5,7 C1,7.9 0.3,8.4 2.4,9 C3,8.5 4.9,7.7 5.3,8.6 L5.4,7.7 C8,7.1 5.8,9.5 9,9.3 L8.3,9 C8.9,8.9 9.4,8.3 10.1,8.5 C10.3,8.7 9.9,8.9 9.6,9.1 C10.5,8.6 11.3,8.2 12.2,7.7 C12.3,8.2 12.3,8.5 11.8,8.9 C14.3,8.7 11.2,7.3 14.2,7.5 C14.8,7.9 14,8.1 13.7,8.4 C15.1,9.1 16,8.3 17.5,7.8 C17.6,8.6 16.6,8.5 17.8,9 C17.5,8.6 17.3,7.9 18.3,7.8 C17.9,8.6 19,8.2 19.9,8.3 C19.7,8 19.8,7.7 20.1,7.5 C20.5,7.4 20.9,7.6 21.5,7.6 L20.4,6.9 C21.9,6.1 22.8,7.2 24,7.5 C23.9,7.6 23.7,7.8 23.5,7.8 C24.7,8.1 26,8.7 27.6,7.9 L27.3,8 C30.2,7.1 26.3,6.7 29.7,5.8 C30.8,5.9 29.3,8.4 31.8,7.4 C30.5,6.8 33.4,5.7 34.9,5.4 L33.4,7 C34,7 35,6.5 35.4,6.7 L35.3,6.4 C35.1,5.1 37.2,6.5 38.3,5.7 C37,7.5 36.9,7.2 36.7,8.9 C37.7,7.9 38.9,7 40.8,7.1 L39.3,8.5 C41.8,8.7 44.8,6.6 46.9,5.5 C46.4,6.5 47.2,6.9 46.3,7.7 L48.7,7.4 L48,8.5 C49,7.3 50.1,8.1 49.9,6.6 C49.6,6.8 49.7,7 49.2,6.9 C49.3,6.5 49.7,5.5 50.9,5.6 C51.8,5.9 50.4,6.2 50.7,6.6 C51.5,6 51.6,6.9 52.4,6.5 L51.6,5.9 C52.2,5 53,5.8 53.8,5.4 C52.8,5.8 53.1,6.3 53.5,6.8 L53.4,6.7 C54.2,6.6 55,6 55.4,6.5 L54.9,7.7 L55.8,6.8 C56.1,6.9 56.4,7.4 55.8,7.6 C58.6,8.3 55.7,5.1 59.4,6.1 C59.4,6.6 59,6.9 58,6.6 C57.8,7.3 58.1,7.7 59.1,8 L59.1,8.1 C61,8.1 63.5,8.1 64.7,7.3 C65.1,7.6 64.7,7.9 64.3,8.2 C66.4,8.6 67.1,7.5 69.3,8.3 L68.3,7.9 C69.7,7.3 72.3,7.1 73.6,8 L73.2,8.3 C74.5,7.6 76.7,8.9 77.2,8.3 C76.6,7.9 77.2,7.7 76.4,7.3 L79.8,6.6 L80,7.8 L81.8,7.4 C81.4,6.9 84.2,7.8 84.3,6.7 C85.3,7.1 83.9,7.6 83.5,8.1 C84.5,7.8 84.6,8.3 85.6,7.6 L86.6,8.7 L89.2,8 C89.1,8.1 89.2,8.2 89.1,8.3 C90.3,7.4 92.2,8.9 93.7,7.4 C93.6,7.5 93.6,7.5 93.6,7.6 C94.5,6.8 96.5,7.4 97.3,7.6 C98.7,7.4 97.9,6.6 97.9,6.2 C101.8,6.6 100.6,6.5 103.9,5.3 C105.9,6.7 101.5,7.4 104,8.3 C104.4,7.7 106.1,7.2 108.1,7 C109.9,7.5 112.9,7.9 114.6,8.9 L114.4,8 L117,7.6 L115.5,8.8 C115.9,8.5 117.2,8 118.1,7.6 C120.8,6.9 119.5,9.5 121.6,8.3 C121.7,8.4 121.7,8.5 121.8,8.6 C122.5,8 124.2,8.3 126.2,8.1 L125.5,9.2 L124.2,8.9 C124.9,10 126.3,8.8 127.6,8.9 C128.9,8.6 128.3,7.6 129,7.3 C129.5,7.4 130.2,7.1 130.6,7.4 C131.7,7.8 130.7,8.7 130.3,9.2 C131.3,8.1 131.7,8.3 133.9,7.9 C134,8.4 133.8,8.7 133.5,8.8 C134,8.7 134.4,8.5 134.7,8 L135.4,8.7 C137.9,9.7 138,6.7 141,7.2 C140.2,7.8 143.6,7.2 144.5,7.9 C143.4,8 144.9,9.5 144.3,10.2 C146.7,10.7 145.3,8.9 147.3,8.8 L146.4,10.1 C148.3,9.6 146.9,9.4 148.8,9 C148.3,9.4 149.6,9.4 148.5,9.8 C151,10 150.4,9.9 152.6,10.1 L152.8,8.8 C153.5,8.7 153.8,9.3 154,9.5 C153.7,9.5 153.2,9.4 153.3,9.6 C154.1,10.8 154.7,9 155.7,10.1 C155.5,9.7 155.2,9.1 156.1,9 C155.8,9.8 157.5,9.8 157.5,10.2 C156.9,9.6 159.5,10 159.6,9.2 C160.6,9.9 159.2,9.8 159.2,10.3 C160.1,9.3 162.9,10.3 163.8,9.7 C163.8,9.8 163.9,9.8 163.9,9.9 C165.1,9.3 166.9,9.2 169.2,8.4 L168.4,9.1 C170.6,9.5 169.8,7.6 171.7,7.6 C171.3,8.7 174.8,7.6 173.9,8.8 C175,8.2 176.2,8 177,7.1 C178,7.7 174.9,8.5 176.4,8.9 L178,8.4 L178.3,9 C178.4,8.6 179.8,8.6 179.7,8.2 C179.9,8.9 180.6,9.4 180.5,10 C181.5,9.8 182.9,10.5 183.8,9.9 L183.9,10.2 C184.9,8.9 187,10 187.5,8.7 L188.1,9.4 C189.6,9.3 189.4,7.9 190.1,7.6 C190.7,7.6 191.5,7.4 192.1,7.6 C190.1,8.4 193.1,8.7 193.5,9.2 C194.3,9.2 196.6,9.2 197.2,8.5 C196.2,9.2 196.8,9.7 195.1,9.8 C196,11.1 197.7,9.6 199.6,9.7 L199.6,10.3 C202.3,9.9 202.4,8.8 203.6,7.8 C203.9,8.6 203.7,8.8 202.9,9.5 C204.7,10 207.6,9.4 209.6,9.5 C210.2,10 209.8,10.4 209.1,10.6 C211.2,10 213.8,10.7 215.1,9.4 C214.6,9.9 216,9.7 216.7,10 C216.7,9.7 216.8,9.4 216.9,9.4 C218.2,8.8 221,8.3 222.5,8.7 L222,9.1 C223.7,9.2 225,8.6 226.3,8.2 C227.6,7.8 228.9,7.4 230.8,7.8 C231.5,8.1 230.1,8.9 231.5,8.8 C232.2,8.3 231.9,7.3 233.7,7.5 L233.6,8.4 L234.8,7.5 C234.1,6.8 232.2,7.1 233.5,6.3 C235.1,7.1 234.8,5.4 236.8,6.3 C236.4,6.4 235.8,7.1 235.5,7.5 C237.5,7.9 238.9,7.6 240.3,7.4 C241.7,7.1 243.1,6.8 245.2,7.2 C247.2,6.4 249.8,6 251.1,5.3 C251.1,6.2 251.1,7 250.3,7.7 C252.1,7.7 252.7,5.6 254,6.8 C254.7,5.5 258.7,5.6 259,3.8 L261,3 L261,3 Z" id="Path" fill="#F3BC34" fill-rule="nonzero"></path>
                <path d="M59.1,8.1 C58.1,8.1 57.2,8.1 56.8,8.3 C57,8.5 59.1,8.9 59.1,8.1 Z M209.2,10.3 C209.1,10.3 208.9,10.4 208.8,10.4 C208.9,10.4 209.1,10.4 209.2,10.3 Z M217.3,9.9 C217.2,9.8 217.1,9.7 216.9,9.6 C216.9,9.9 217,10.1 217.3,9.9 Z M179.5,10.7 C180.2,10.3 180.5,10 180.5,9.7 C180.1,9.8 179.8,10 179.5,10.7 Z M164,9.6 C163.9,9.7 163.8,9.7 163.7,9.8 C164,9.7 164,9.6 164,9.6 Z M131.2,9 C131.9,8.6 132.8,8.7 133.6,8.5 C132.9,8.7 131.7,8.2 131.2,9 Z M227.1,8.4 L226.4,9 L227.2,8.6 L227.1,8.4 Z M219.6,9 C219.3,8.9 217.9,9.3 218.3,9.6 C218.7,9.3 219.2,9.1 219.6,9 Z M190.6,8.4 L190.3,9 L191,8.5 L190.6,8.4 Z" id="Shape" fill="#F3BC34" fill-rule="nonzero"></path>
            </g>
        </g>
    </g>
</svg>